<svg preserveAspectRatio="none" width="100%" height="100%" overflow="visible" style="display: block;" viewBox="0 0 24 24" fill="none" xmlns="http://www.w3.org/2000/svg">
<g id="SVG" clip-path="url(#clip0_0_4)">
<path id="Vector" d="M17.472 14.382C17.175 14.233 15.714 13.515 15.442 13.415C15.169 13.316 14.971 13.267 14.772 13.565C14.575 13.862 14.005 14.531 13.832 14.729C13.659 14.928 13.485 14.952 13.188 14.804C12.891 14.654 11.933 14.341 10.798 13.329C9.915 12.541 9.318 11.568 9.145 11.27C8.972 10.973 9.127 10.812 9.275 10.664C9.409 10.531 9.573 10.317 9.721 10.144C9.87 9.97 9.919 9.846 10.019 9.647C10.118 9.449 10.069 9.276 9.994 9.127C9.919 8.978 9.325 7.515 9.078 6.92C8.836 6.341 8.591 6.42 8.409 6.41C8.236 6.402 8.038 6.4 7.839 6.4C7.641 6.4 7.319 6.474 7.047 6.772C6.775 7.069 6.007 7.788 6.007 9.251C6.007 10.713 7.072 12.126 7.22 12.325C7.369 12.523 9.316 15.525 12.297 16.812C13.006 17.118 13.559 17.301 13.991 17.437C14.703 17.664 15.351 17.632 15.862 17.555C16.433 17.47 17.62 16.836 17.868 16.142C18.116 15.448 18.116 14.853 18.041 14.729C17.967 14.605 17.769 14.531 17.471 14.382H17.472M12.05 21.785H12.046C10.2758 21.7851 8.53808 21.3092 7.015 20.407L6.654 20.193L2.913 21.175L3.911 17.527L3.676 17.153C2.68644 15.5773 2.16294 13.7537 2.166 11.893C2.167 6.443 6.602 2.009 12.054 2.009C14.694 2.009 17.176 3.039 19.042 4.907C20.9016 6.75844 21.9434 9.27687 21.935 11.901C21.932 17.351 17.498 21.785 12.05 21.785V21.785M20.463 3.488C18.2375 1.24778 15.2078 -0.00831635 12.05 0C5.495 0 0.16 5.335 0.157 11.892C0.157 13.988 0.704 16.034 1.745 17.837L0.057 24L6.362 22.346C8.10559 23.2959 10.0594 23.7937 12.045 23.794H12.05C18.604 23.794 23.94 18.459 23.943 11.901C23.9528 8.74452 22.6997 5.71524 20.463 3.488V3.488" fill="var(--fill-0, white)"/>
</g>
<defs>
<clipPath id="clip0_0_4">
<rect width="24" height="24" fill="white"/>
</clipPath>
</defs>
</svg>
